<svg xmlns="http://www.w3.org/2000/svg" viewBox="0 0 64 64">
  <rect width="64" height="64" rx="16" fill="#131a2b"/>
  <path d="M20.4 42.5c-3.1 0-5.6-1-7.5-3.1-1.9-2-2.9-4.6-2.9-7.6 0-3.1 1-5.6 2.9-7.6 1.9-2 4.4-3 7.5-3 3.9 0 7 1.8 8.5 5l-4.1 2.1c-.8-1.7-2.4-2.7-4.4-2.7-1.6 0-2.9.6-3.9 1.7-1 1.1-1.5 2.6-1.5 4.5s.5 3.4 1.5 4.5c1 1.1 2.3 1.7 3.9 1.7 2.1 0 3.6-1 4.5-2.8l4.1 2.1c-1.6 3.3-4.7 5.2-8.6 5.2z" fill="#ffffff"/>
  <path d="M33.4 42V21.7h5.2l5.4 12.7 5.3-12.7h5.1V42h-4.7V29.9L45.1 42h-2.4L38 29.9V42h-4.6z" fill="#ffffff"/>
  <circle cx="50" cy="14" r="5" fill="#087f68"/>
</svg>
