<svg xmlns="http://www.w3.org/2000/svg" viewBox="0 0 132 60" role="img" aria-labelledby="title">
  <title id="title">3D Secure</title>
  <rect width="132" height="60" rx="8" fill="#fff"/>
  <path fill="#1f5fbf" d="M21 18h16.8c6.3 0 10.2 3.1 10.2 8 0 3.2-1.8 5.6-4.9 6.8 3.7 1 5.9 3.7 5.9 7.5 0 5.3-4.4 8.7-11.1 8.7H21V18Zm15.9 12.2c2.5 0 4-1.1 4-3s-1.5-2.9-4-2.9h-8.6v5.9h8.6Zm.7 12.5c2.7 0 4.2-1.2 4.2-3.3 0-2-1.5-3.2-4.2-3.2h-9.3v6.5h9.3Z"/>
  <path fill="#0aa36e" d="M54 18h13.6c10.4 0 17.8 6.3 17.8 15.5S78 49 67.6 49H54V18Zm13.3 24.1c6.1 0 10.4-3.5 10.4-8.6s-4.3-8.6-10.4-8.6h-5.8v17.2h5.8Z"/>
  <path fill="#202b3d" d="M92.5 24.5c0-4.2 3.7-7.1 9.4-7.1 3 0 6.2.8 8.7 2.3l-2.1 5.2a14.1 14.1 0 0 0-6.7-1.9c-1.8 0-2.8.5-2.8 1.5 0 3.1 12.7 1.1 12.7 10.4 0 4.5-3.7 7.3-9.8 7.3-3.7 0-7.5-1-10.2-2.9l2.3-5.1a15.5 15.5 0 0 0 8 2.6c2 0 3.1-.6 3.1-1.7 0-3.2-12.6-1-12.6-10.6Z"/>
  <text x="91" y="50" fill="#202b3d" font-family="Arial, Helvetica, sans-serif" font-size="8" font-weight="700">SECURE</text>
</svg>
